<?xml version="1.0" encoding="UTF-8"?>
<svg xmlns="http://www.w3.org/2000/svg" xmlns:xlink="http://www.w3.org/1999/xlink" width="270px" height="187px" viewBox="0 0 488 187" version="1.1">
<g id="surface1">
<path style=" stroke:none;fill-rule:nonzero;fill:rgb(91.764706%,70.588235%,14.117647%);fill-opacity:1;" d="M 161.164062 80.773438 C 161.164062 37.40625 125.867188 2.125 82.511719 2.125 C 39.164062 2.125 3.917969 37.40625 3.917969 80.773438 C 3.917969 124.152344 39.164062 159.433594 82.511719 159.433594 C 125.867188 159.433594 161.164062 124.152344 161.164062 80.773438 M 82.511719 146.109375 C 81.429688 146.109375 80.332031 145.988281 79.25 145.933594 L 33.460938 76.550781 L 50.171875 76.550781 L 95.339844 144.84375 C 91.195312 145.667969 86.929688 146.109375 82.511719 146.109375 M 109.457031 140.234375 L 67.410156 76.550781 L 84.175781 76.550781 L 121.546875 133.054688 C 117.765625 135.855469 113.765625 138.277344 109.457031 140.234375 M 101.410156 76.550781 L 118.179688 76.550781 L 140.601562 110.511719 C 138.269531 115.046875 135.460938 119.28125 132.144531 123.128906 Z M 101.410156 76.550781 "/>
<path style=" stroke:none;fill-rule:nonzero;fill:rgb(96.078431%,84.705882%,60.392157%);fill-opacity:1;" d="M 155.195312 132.765625 C 152.402344 136.8125 149.28125 140.597656 145.855469 144.089844 L 172.433594 184.699219 L 189.253906 184.695312 M 106.347656 166.984375 C 103.488281 167.738281 100.585938 168.320312 97.621094 168.777344 C 96.585938 168.933594 95.542969 169.136719 94.460938 169.253906 L 104.421875 184.699219 L 121.300781 184.695312 L 109.308594 166.222656 C 108.316406 166.511719 107.335938 166.726562 106.347656 166.984375 "/>
<path style=" stroke:none;fill-rule:nonzero;fill:rgb(96.078431%,84.705882%,60.392157%);fill-opacity:1;" d="M 122.851562 160.777344 L 138.425781 184.699219 L 155.296875 184.695312 L 134.902344 153.484375 C 131.109375 156.234375 127.113281 158.675781 122.851562 160.777344 "/>
<path style=" stroke:none;fill-rule:nonzero;fill:rgb(21.176471%,20.784314%,20.392157%);fill-opacity:1;" d="M 247.554688 102.050781 L 254.253906 102.226562 L 257.996094 102.226562 C 258.457031 103.015625 286.757812 150.144531 286.757812 150.144531 C 288.308594 152.65625 289.660156 152.65625 291.683594 152.65625 L 302.066406 152.65625 C 303.726562 152.65625 304.980469 151.390625 304.980469 149.71875 L 304.355469 147.796875 C 304.355469 147.796875 279.222656 105.773438 275.441406 99.417969 C 291.324219 94.808594 300.460938 82.792969 300.460938 66.214844 L 300.460938 65.074219 C 300.460938 41.390625 284.933594 29.386719 254.257812 29.386719 C 243.984375 29.386719 232.25 29.921875 225.652344 30.683594 C 222.378906 31.050781 221.03125 32.324219 221.03125 35.078125 L 221.03125 148.582031 C 221.03125 150.824219 222.683594 152.65625 224.765625 152.65625 L 233.492188 152.65625 C 235.878906 152.65625 237.28125 150.582031 237.28125 148.582031 L 237.28125 101.773438 L 237.125 87.359375 L 237.125 44.507812 C 241.226562 44.09375 249.480469 44.078125 254.109375 44.078125 C 275.386719 44.078125 284.0625 50.089844 284.0625 64.820312 L 284.0625 65.953125 C 284.0625 81.574219 275.648438 87.660156 254.109375 87.660156 C 254.109375 87.660156 251.035156 87.609375 247.5625 87.542969 L 247.5625 102.050781 Z M 387.617188 82.679688 L 348.425781 82.679688 L 348.472656 96.09375 L 387.617188 96.09375 C 389.648438 96.09375 391.257812 94.464844 391.257812 92.460938 L 391.257812 86.304688 C 391.257812 84.300781 389.648438 82.679688 387.617188 82.679688 M 389.285156 30.957031 C 382.222656 30.285156 366.546875 29.980469 357.65625 29.980469 C 333.832031 29.980469 322.722656 39.6875 322.722656 60.519531 L 322.722656 122.949219 C 322.722656 143.78125 333.839844 153.492188 357.65625 153.492188 C 361.660156 153.492188 381.964844 153.449219 389.285156 152.679688 L 389.285156 152.675781 C 390.523438 152.476562 391.257812 151.144531 391.257812 150.027344 L 391.257812 141.757812 C 391.257812 140.363281 390.375 139.429688 389.074219 139.429688 L 357.824219 139.429688 C 341.105469 139.429688 338.246094 135.316406 338.246094 122.949219 L 338.246094 60.519531 C 338.246094 48.152344 341.105469 44.039062 357.824219 44.039062 L 389.082031 44.039062 C 390.378906 44.039062 391.261719 43.101562 391.261719 41.710938 L 391.261719 33.601562 C 391.257812 32.484375 390.53125 31.15625 389.285156 30.957031 M 479.824219 138.128906 L 479.199219 138.128906 C 471.621094 138.757812 460.671875 139.429688 452.464844 139.429688 C 434.238281 139.429688 424.636719 126.832031 424.636719 103.003906 L 424.636719 80.46875 C 424.636719 56.296875 433.988281 44.039062 452.464844 44.039062 C 462.171875 44.039062 474.84375 45.097656 479.609375 45.5 L 480.140625 45.5 C 481.746094 45.5 482.472656 44.792969 482.472656 43.335938 L 482.472656 35.0625 C 482.472656 32.902344 480.289062 32.65625 479.5625 32.574219 C 471.101562 31.230469 461.914062 29.980469 452.308594 29.980469 C 439.328125 29.980469 409.117188 34.894531 409.117188 80.46875 L 409.117188 103.003906 C 409.117188 148.570312 439.328125 153.492188 452.308594 153.492188 C 465.652344 153.492188 472.035156 152.746094 479.246094 151.375 C 481.53125 150.964844 482.828125 149.648438 482.828125 147.757812 L 482.828125 141.113281 C 482.835938 139.105469 481.851562 138.128906 479.824219 138.128906 "/>
</g>
</svg>
